<mxfile host="app.diagrams.net" agent="Mozilla/5.0 (Windows NT 10.0; Win64; x64) AppleWebKit/537.36 (KHTML, like Gecko) Chrome/139.0.0.0 Safari/537.36" version="28.1.0">
  <diagram id="smart_toaster" name="Smart Toaster BPMN">
    <mxGraphModel dx="2037" dy="1061" grid="1" gridSize="10" guides="1" tooltips="1" connect="1" arrows="1" fold="1" page="1" pageScale="1" pageWidth="1920" pageHeight="1080" math="0" shadow="0">
      <root>
        <mxCell id="0" />
        <mxCell id="1" parent="0" />
        <mxCell id="lane_user" value="Пользователь" style="swimlane" parent="1" vertex="1">
          <mxGeometry x="480" y="100" width="900" height="410" as="geometry" />
        </mxCell>
        <mxCell id="start_user" value="Начало" style="ellipse;whiteSpace=wrap;html=1;" parent="lane_user" vertex="1">
          <mxGeometry x="50" y="140" width="60" height="60" as="geometry" />
        </mxCell>
        <mxCell id="f7wh6hsLK3r6dwCnJ3Xl-6" style="edgeStyle=orthogonalEdgeStyle;rounded=0;orthogonalLoop=1;jettySize=auto;html=1;exitX=0.5;exitY=1;exitDx=0;exitDy=0;entryX=0.5;entryY=0;entryDx=0;entryDy=0;" edge="1" parent="lane_user" source="launch_app" target="f7wh6hsLK3r6dwCnJ3Xl-1">
          <mxGeometry relative="1" as="geometry" />
        </mxCell>
        <mxCell id="launch_app" value="Запуск приложения" style="rounded=1;whiteSpace=wrap;html=1;" parent="lane_user" vertex="1">
          <mxGeometry x="150" y="150" width="140" height="40" as="geometry" />
        </mxCell>
        <mxCell id="f7wh6hsLK3r6dwCnJ3Xl-7" style="edgeStyle=orthogonalEdgeStyle;rounded=0;orthogonalLoop=1;jettySize=auto;html=1;exitX=0.5;exitY=1;exitDx=0;exitDy=0;entryX=0.5;entryY=0;entryDx=0;entryDy=0;" edge="1" parent="lane_user" source="select_level" target="f7wh6hsLK3r6dwCnJ3Xl-2">
          <mxGeometry relative="1" as="geometry" />
        </mxCell>
        <mxCell id="select_level" value="Выбор уровня прожарки" style="rounded=1;whiteSpace=wrap;html=1;" parent="lane_user" vertex="1">
          <mxGeometry x="370" y="150" width="160" height="40" as="geometry" />
        </mxCell>
        <mxCell id="f7wh6hsLK3r6dwCnJ3Xl-11" style="edgeStyle=orthogonalEdgeStyle;rounded=0;orthogonalLoop=1;jettySize=auto;html=1;exitX=0.5;exitY=0;exitDx=0;exitDy=0;entryX=0.5;entryY=1;entryDx=0;entryDy=0;" edge="1" parent="lane_user" source="gateway_stop_user" target="f7wh6hsLK3r6dwCnJ3Xl-10">
          <mxGeometry relative="1" as="geometry" />
        </mxCell>
        <mxCell id="gateway_stop_user" value="Остановить?" style="rhombus;whiteSpace=wrap;html=1;strokeColor=light-dark(#000000,#FFD966);" parent="lane_user" vertex="1">
          <mxGeometry x="570" y="130" width="80" height="80" as="geometry" />
        </mxCell>
        <mxCell id="f7wh6hsLK3r6dwCnJ3Xl-14" style="edgeStyle=orthogonalEdgeStyle;rounded=0;orthogonalLoop=1;jettySize=auto;html=1;exitX=0.5;exitY=0;exitDx=0;exitDy=0;entryX=0.5;entryY=1;entryDx=0;entryDy=0;" edge="1" parent="lane_user" source="toasts_ready" target="f7wh6hsLK3r6dwCnJ3Xl-13">
          <mxGeometry relative="1" as="geometry" />
        </mxCell>
        <mxCell id="toasts_ready" value="Тосты готовы" style="rounded=1;whiteSpace=wrap;html=1;" parent="lane_user" vertex="1">
          <mxGeometry x="710" y="150" width="140" height="40" as="geometry" />
        </mxCell>
        <mxCell id="edge1" parent="lane_user" source="start_user" target="launch_app" edge="1">
          <mxGeometry relative="1" as="geometry" />
        </mxCell>
        <mxCell id="edge2" parent="lane_user" source="launch_app" target="select_level" edge="1">
          <mxGeometry relative="1" as="geometry" />
        </mxCell>
        <mxCell id="edge3" parent="lane_user" source="select_level" target="gateway_stop_user" edge="1">
          <mxGeometry relative="1" as="geometry" />
        </mxCell>
        <mxCell id="edge4" parent="lane_user" source="gateway_stop_user" target="toasts_ready" edge="1">
          <mxGeometry relative="1" as="geometry" />
        </mxCell>
        <mxCell id="f7wh6hsLK3r6dwCnJ3Xl-9" style="edgeStyle=orthogonalEdgeStyle;rounded=0;orthogonalLoop=1;jettySize=auto;html=1;exitX=0.75;exitY=0;exitDx=0;exitDy=0;entryX=0.5;entryY=0;entryDx=0;entryDy=0;" edge="1" parent="lane_user" source="f7wh6hsLK3r6dwCnJ3Xl-1" target="select_level">
          <mxGeometry relative="1" as="geometry">
            <Array as="points">
              <mxPoint x="310" y="270" />
              <mxPoint x="310" y="130" />
              <mxPoint x="450" y="130" />
            </Array>
          </mxGeometry>
        </mxCell>
        <mxCell id="f7wh6hsLK3r6dwCnJ3Xl-1" value="Отправить запрос на подключение" style="rounded=1;whiteSpace=wrap;html=1;" vertex="1" parent="lane_user">
          <mxGeometry x="110" y="270" width="220" height="40" as="geometry" />
        </mxCell>
        <mxCell id="f7wh6hsLK3r6dwCnJ3Xl-2" value="Передача уровня прожарки" style="rounded=1;whiteSpace=wrap;html=1;" vertex="1" parent="lane_user">
          <mxGeometry x="350" y="250" width="200" height="40" as="geometry" />
        </mxCell>
        <mxCell id="f7wh6hsLK3r6dwCnJ3Xl-8" style="edgeStyle=orthogonalEdgeStyle;rounded=0;orthogonalLoop=1;jettySize=auto;html=1;exitX=0.5;exitY=0;exitDx=0;exitDy=0;entryX=0.5;entryY=1;entryDx=0;entryDy=0;" edge="1" parent="lane_user" source="f7wh6hsLK3r6dwCnJ3Xl-3" target="toasts_ready">
          <mxGeometry relative="1" as="geometry" />
        </mxCell>
        <mxCell id="f7wh6hsLK3r6dwCnJ3Xl-12" style="edgeStyle=orthogonalEdgeStyle;rounded=0;orthogonalLoop=1;jettySize=auto;html=1;exitX=0.25;exitY=0;exitDx=0;exitDy=0;entryX=0.5;entryY=1;entryDx=0;entryDy=0;" edge="1" parent="lane_user" source="f7wh6hsLK3r6dwCnJ3Xl-3" target="gateway_stop_user">
          <mxGeometry relative="1" as="geometry" />
        </mxCell>
        <mxCell id="f7wh6hsLK3r6dwCnJ3Xl-3" value="Управление процессом" style="rounded=1;whiteSpace=wrap;html=1;" vertex="1" parent="lane_user">
          <mxGeometry x="690" y="250" width="180" height="40" as="geometry" />
        </mxCell>
        <mxCell id="f7wh6hsLK3r6dwCnJ3Xl-5" edge="1" parent="lane_user" source="f7wh6hsLK3r6dwCnJ3Xl-2" target="f7wh6hsLK3r6dwCnJ3Xl-3">
          <mxGeometry relative="1" as="geometry" />
        </mxCell>
        <mxCell id="f7wh6hsLK3r6dwCnJ3Xl-10" value="Завершено" style="ellipse;whiteSpace=wrap;html=1;fillColor=#FFAAAA;" vertex="1" parent="lane_user">
          <mxGeometry x="580" y="30" width="60" height="60" as="geometry" />
        </mxCell>
        <mxCell id="f7wh6hsLK3r6dwCnJ3Xl-13" value="Завершено" style="ellipse;whiteSpace=wrap;html=1;fillColor=#FFAAAA;" vertex="1" parent="lane_user">
          <mxGeometry x="750" y="30" width="60" height="60" as="geometry" />
        </mxCell>
        <mxCell id="lane_toaster" value="Умный тостер" style="swimlane" parent="1" vertex="1">
          <mxGeometry x="480" y="510" width="900" height="300" as="geometry">
            <mxRectangle y="310" width="120" height="30" as="alternateBounds" />
          </mxGeometry>
        </mxCell>
        <mxCell id="connect" value="Подключение" style="rounded=1;whiteSpace=wrap;html=1;" parent="lane_toaster" vertex="1">
          <mxGeometry x="100" y="140" width="140" height="40" as="geometry" />
        </mxCell>
        <mxCell id="preparation" value="Приготовление" style="rounded=1;whiteSpace=wrap;html=1;" parent="lane_toaster" vertex="1">
          <mxGeometry x="300" y="140" width="160" height="40" as="geometry" />
        </mxCell>
        <mxCell id="gateway_stop_toaster" value="Остановить?" style="rhombus;whiteSpace=wrap;html=1;strokeColor=light-dark(#000000,#FFD966);" parent="lane_toaster" vertex="1">
          <mxGeometry x="520" y="120" width="80" height="80" as="geometry" />
        </mxCell>
        <mxCell id="end" value="Завершено" style="ellipse;whiteSpace=wrap;html=1;fillColor=#FFAAAA;" parent="lane_toaster" vertex="1">
          <mxGeometry x="680" y="130" width="60" height="60" as="geometry" />
        </mxCell>
        <mxCell id="edge5" parent="lane_toaster" source="connect" target="preparation" edge="1">
          <mxGeometry relative="1" as="geometry" />
        </mxCell>
        <mxCell id="edge6" parent="lane_toaster" source="preparation" target="gateway_stop_toaster" edge="1">
          <mxGeometry relative="1" as="geometry" />
        </mxCell>
        <mxCell id="edge7" parent="lane_toaster" source="gateway_stop_toaster" target="end" edge="1">
          <mxGeometry relative="1" as="geometry" />
        </mxCell>
        <mxCell id="f7wh6hsLK3r6dwCnJ3Xl-15" value="&lt;font style=&quot;font-size: 18px;&quot;&gt;Процесс работы системы управления умным тостером&lt;/font&gt;" style="text;whiteSpace=wrap;html=1;fontStyle=4" vertex="1" parent="1">
          <mxGeometry x="720" y="20" width="480" height="50" as="geometry" />
        </mxCell>
      </root>
    </mxGraphModel>
  </diagram>
</mxfile>
